<svg id="Layer_1" data-name="Layer 1" xmlns="http://www.w3.org/2000/svg" xmlns:xlink="http://www.w3.org/1999/xlink" viewBox="0 0 256 256"><defs><style>.cls-1{fill:url(#New_Gradient_Swatch_1);}.cls-2{fill:#ab3231;}</style><linearGradient id="New_Gradient_Swatch_1" x1="20.01" y1="129.59" x2="238.8" y2="129.59" gradientUnits="userSpaceOnUse"><stop offset="0" stop-color="#ffe259"/><stop offset="1" stop-color="#ffa751"/></linearGradient></defs><title>favGuitar pick</title><path class="cls-1" d="M143.81,135.36v-2.55h73.12c1.85-5.6,3.44-11.14,4.75-16.56H143.81V113.7h78.47a150.06,150.06,0,0,0,2.85-16.56H143.81V94.59h81.56A89.07,89.07,0,0,0,225.43,78H143.81V75.09h81.26A42.61,42.61,0,0,0,220.2,60c-25.89-45.09-91-43.91-91-43.91S59.55,12.88,38.13,60s43.71,183.13,91,183.13c30,0,69-55.62,86.91-107.78Z"/><path class="cls-2" d="M141.18,171H129.93V154.47h11.25Zm0-19.11H129.93V135.36h11.25Zm0-19.11H129.93V116.25h11.25Zm0-19.11H129.93V97.14h11.25Zm0-19.11H129.93V78h11.25ZM234.62,152H158.33a9.22,9.22,0,0,1-1.17-.08H143.81V75.09H128.52c-5.79,0-10.52,5.4-10.52,12v75c0,6.6,4.73,12,10.52,12h100a9.78,9.78,0,0,0,7-3.06H143.81V154.47H239v-2.55h-3.22A9.22,9.22,0,0,1,234.62,152Z"/></svg>